<svg xmlns="http://www.w3.org/2000/svg" version="1.1" xmlns:xlink="http://www.w3.org/1999/xlink" width="512" height="512" x="0" y="0" viewBox="0 0 512 512" style="enable-background:new 0 0 512 512" xml:space="preserve" class=""><g><path d="m256.2 424.47-61.44-30.72v-30.72h-61.44l-61.44-30.72V224.79l30.72-61.44 153.6-76.8 61.44 61.44v30.72h30.72l92.16 92.16v15.36l-30.72 61.44zm0-30.72 122.88-61.44 30.72-61.44-61.44-61.44h-61.44l-76.8 38.4-15.36-7.68-30.72-30.72 122.88-61.44-30.72-30.72-122.88 61.44-30.72 61.44 61.44 61.44h61.44l76.8-38.4 15.36 7.68 30.72 30.72-122.88 61.44z" fill="white" opacity="1" class=""></path></g></svg>